<?xml version="1.0" standalone="no"?>
<!DOCTYPE svg PUBLIC "-//W3C//DTD SVG 20010904//EN"
 "http://www.w3.org/TR/2001/REC-SVG-20010904/DTD/svg10.dtd">
<svg version="1.0" xmlns="http://www.w3.org/2000/svg"
 width="260.000000pt" height="260.000000pt" viewBox="0 0 260.000000 260.000000"
 preserveAspectRatio="xMidYMid meet">
<metadata>
Created by potrace 1.11, written by Peter Selinger 2001-2013
</metadata>
<g transform="translate(0.000000,260.000000) scale(0.100000,-0.100000)"
fill="#000000" stroke="none">
<path d="M840 1360 l0 -860 34 0 35 0 3 348 3 347 33 67 c56 115 173 205 295
229 161 31 337 -61 414 -218 l28 -58 3 -357 3 -358 39 0 40 0 0 308 c0 169 -5
336 -11 372 -29 182 -175 333 -357 371 -67 14 -184 7 -257 -15 -71 -22 -153
-82 -197 -145 l-38 -54 0 441 0 442 -35 0 -35 0 0 -860z"/>
</g>
</svg>
